<?xml version="1.0" encoding="utf-8"?>
<!-- Generated by IcoMoon.io -->
<!DOCTYPE svg PUBLIC "-//W3C//DTD SVG 1.1//EN" "http://www.w3.org/Graphics/SVG/1.1/DTD/svg11.dtd">
<svg version="1.1" xmlns="http://www.w3.org/2000/svg" xmlns:xlink="http://www.w3.org/1999/xlink" width="600" height="600" viewBox="0 0 600 600">
<path fill="#444444" d="M300 0c-165.686 0-300 134.314-300 300s134.314 300 300 300 300-134.314 300-300-134.314-300-300-300zM187.5 300c0-62.133 50.367-112.5 112.5-112.5s112.5 50.367 112.5 112.5-50.367 112.5-112.5 112.5-112.5-50.367-112.5-112.5zM542.566 400.474v0l-103.957-43.061c7.335-17.686 11.391-37.076 11.391-57.414s-4.056-39.728-11.391-57.414l103.957-43.061c12.837 30.95 19.934 64.881 19.934 100.474s-7.098 69.524-19.934 100.474v0zM400.475 57.434v0 0l-43.061 103.957c-17.686-7.335-37.076-11.391-57.415-11.391s-39.728 4.056-57.414 11.391l-43.061-103.958c30.95-12.834 64.882-19.932 100.474-19.932 35.593 0 69.524 7.098 100.475 19.934zM57.434 199.526l103.958 43.061c-7.335 17.686-11.392 37.076-11.392 57.414s4.056 39.728 11.391 57.414l-103.957 43.061c-12.836-30.95-19.934-64.881-19.934-100.474s7.098-69.524 19.934-100.474zM199.526 542.566l43.061-103.957c17.686 7.335 37.076 11.391 57.414 11.391s39.728-4.056 57.414-11.391l43.061 103.957c-30.95 12.834-64.881 19.934-100.474 19.934-35.592 0-69.524-7.098-100.474-19.934z"></path>
</svg>
