<?xml version="1.0" encoding="utf-8"?>
<!-- Generated by IcoMoon.io -->
<!DOCTYPE svg PUBLIC "-//W3C//DTD SVG 1.1//EN" "http://www.w3.org/Graphics/SVG/1.1/DTD/svg11.dtd">
<svg version="1.1" xmlns="http://www.w3.org/2000/svg" xmlns:xlink="http://www.w3.org/1999/xlink" width="600" height="600" viewBox="0 0 600 600">
<path fill="#444444" d="M543.75 75h-487.5c-30.938 0-56.25 25.313-56.25 56.25v375c0 30.938 25.313 56.25 56.25 56.25h487.5c30.938 0 56.25-25.313 56.25-56.25v-375c0-30.938-25.313-56.25-56.25-56.25zM233.637 322.484l-158.637 123.57v-293.931l158.637 170.361zM103.348 150h393.305l-196.652 147.656-196.652-147.656zM239.817 329.12l60.183 64.63 60.182-64.63 123.371 158.38h-367.106l123.37-158.38zM366.363 322.484l158.637-170.361v293.931l-158.637-123.57z"></path>
</svg>
