<?xml version="1.0" encoding="utf-8"?>
<!-- Generated by IcoMoon.io -->
<!DOCTYPE svg PUBLIC "-//W3C//DTD SVG 1.1//EN" "http://www.w3.org/Graphics/SVG/1.1/DTD/svg11.dtd">
<svg version="1.1" xmlns="http://www.w3.org/2000/svg" xmlns:xlink="http://www.w3.org/1999/xlink" width="600" height="600" viewBox="0 0 600 600">
<path fill="#444444" d="M487.5 525h-375v-75l112.5-187.5 154.102 187.5 108.398-75v150z"></path>
<path fill="#444444" d="M487.5 281.25c0 31.066-25.184 56.25-56.25 56.25-31.068 0-56.25-25.184-56.25-56.25s25.182-56.25 56.25-56.25c31.066 0 56.25 25.184 56.25 56.25z"></path>
<path fill="#444444" d="M537.777 134.224c-13.015-17.749-31.157-38.496-51.081-58.42s-40.671-38.065-58.42-51.081c-30.219-22.16-44.878-24.723-53.276-24.723h-290.625c-25.847 0-46.875 21.028-46.875 46.875v506.25c0 25.847 21.028 46.875 46.875 46.875h431.25c25.847 0 46.875-21.028 46.875-46.875v-365.625c0-8.398-2.562-23.057-24.723-53.276zM460.18 102.32c17.988 17.988 32.109 34.218 42.527 47.68h-90.207v-90.203c13.467 10.418 29.694 24.538 47.68 42.523zM525 553.125c0 5.081-4.294 9.375-9.375 9.375h-431.25c-5.081 0-9.375-4.294-9.375-9.375v-506.25c0-5.081 4.294-9.375 9.375-9.375 0 0 290.599-0.001 290.625 0v131.25c0 10.355 8.394 18.75 18.75 18.75h131.25v365.625z"></path>
</svg>
