<?xml version="1.0" encoding="utf-8"?>
<!-- Generated by IcoMoon.io -->
<!DOCTYPE svg PUBLIC "-//W3C//DTD SVG 1.1//EN" "http://www.w3.org/Graphics/SVG/1.1/DTD/svg11.dtd">
<svg version="1.1" xmlns="http://www.w3.org/2000/svg" xmlns:xlink="http://www.w3.org/1999/xlink" width="600" height="600" viewBox="0 0 600 600">
<path fill="#444444" d="M300 75c-144.975 0-262.5 117.525-262.5 262.5s117.525 262.5 262.5 262.5 262.5-117.525 262.5-262.5-117.525-262.5-262.5-262.5zM300 548.438c-116.498 0-210.938-94.44-210.938-210.938 0-116.498 94.439-210.938 210.938-210.938 116.497 0 210.938 94.439 210.938 210.938 0 116.497-94.44 210.938-210.938 210.938zM547.725 168.266c9.4-16.437 14.775-35.474 14.775-55.766 0-62.133-50.367-112.5-112.5-112.5-36.221 0-68.439 17.122-89.016 43.709 77.276 15.959 143.675 61.639 186.741 124.557v0zM239.016 43.709c-20.576-26.586-52.794-43.709-89.016-43.709-62.133 0-112.5 50.367-112.5 112.5 0 20.292 5.375 39.329 14.775 55.766 43.066-62.918 109.466-108.599 186.741-124.557z"></path>
<path fill="#444444" d="M300 337.5v-150h-37.5v187.5h150v-37.5z"></path>
</svg>
