<?xml version="1.0" encoding="utf-8"?>
<!-- Generated by IcoMoon.io -->
<!DOCTYPE svg PUBLIC "-//W3C//DTD SVG 1.1//EN" "http://www.w3.org/Graphics/SVG/1.1/DTD/svg11.dtd">
<svg version="1.1" xmlns="http://www.w3.org/2000/svg" xmlns:xlink="http://www.w3.org/1999/xlink" width="600" height="600" viewBox="0 0 600 600">
<path fill="#444444" d="M562.432 75c0.023 0.020 0.048 0.045 0.068 0.068v449.865c-0.020 0.023-0.045 0.048-0.068 0.068h-524.865c-0.023-0.020-0.048-0.045-0.067-0.068v-449.866c0.020-0.023 0.045-0.048 0.067-0.067h524.865zM562.5 37.5h-525c-20.625 0-37.5 16.875-37.5 37.5v450c0 20.625 16.875 37.5 37.5 37.5h525c20.625 0 37.5-16.875 37.5-37.5v-450c0-20.625-16.875-37.5-37.5-37.5v0z"></path>
<path fill="#444444" d="M487.5 168.75c0 31.066-25.184 56.25-56.25 56.25s-56.25-25.184-56.25-56.25 25.184-56.25 56.25-56.25 56.25 25.184 56.25 56.25z"></path>
<path fill="#444444" d="M525 487.5h-450v-75l131.25-225 150 187.5h37.5l131.25-112.5z"></path>
</svg>
