<?xml version="1.0" encoding="utf-8"?>
<!-- Generated by IcoMoon.io -->
<!DOCTYPE svg PUBLIC "-//W3C//DTD SVG 1.1//EN" "http://www.w3.org/Graphics/SVG/1.1/DTD/svg11.dtd">
<svg version="1.1" xmlns="http://www.w3.org/2000/svg" xmlns:xlink="http://www.w3.org/1999/xlink" width="600" height="600" viewBox="0 0 600 600">
<path fill="#444444" d="M225 543.75c0 31.066-25.184 56.25-56.25 56.25s-56.25-25.184-56.25-56.25c0-31.066 25.184-56.25 56.25-56.25s56.25 25.184 56.25 56.25z"></path>
<path fill="#444444" d="M600 543.75c0 31.066-25.184 56.25-56.25 56.25s-56.25-25.184-56.25-56.25c0-31.066 25.184-56.25 56.25-56.25s56.25 25.184 56.25 56.25z"></path>
<path fill="#444444" d="M600 300v-225h-450c0-20.711-16.789-37.5-37.5-37.5h-112.5v37.5h75l28.168 241.438c-17.164 13.745-28.168 34.863-28.168 58.562 0 41.423 33.579 75 75 75h450v-37.5h-450c-20.711 0-37.5-16.789-37.5-37.5 0-0.128 0.008-0.255 0.009-0.384l487.491-74.616z"></path>
</svg>
