<?xml version="1.0" encoding="utf-8"?>
<!-- Generated by IcoMoon.io -->
<!DOCTYPE svg PUBLIC "-//W3C//DTD SVG 1.1//EN" "http://www.w3.org/Graphics/SVG/1.1/DTD/svg11.dtd">
<svg version="1.1" xmlns="http://www.w3.org/2000/svg" xmlns:xlink="http://www.w3.org/1999/xlink" width="600" height="600" viewBox="0 0 600 600">
<path fill="#444444" d="M600 251.517c0-117.73-34.448-213.245-77.040-214 0.171-0.004 0.339-0.018 0.511-0.018h-48.599c0 0-114.141 85.744-278.455 119.387-5.016 26.538-8.221 58.168-8.221 94.63s3.203 68.091 8.221 94.629c164.313 33.643 278.455 119.388 278.455 119.388h48.599c-0.171 0-0.339-0.014-0.511-0.019 42.595-0.755 77.040-96.268 77.040-213.998zM506.733 433.155c-5.497 0-11.445-5.708-14.5-9.11-7.4-8.241-14.527-21.070-20.618-37.106-13.627-35.878-21.132-83.971-21.132-135.424 0-51.451 7.506-99.545 21.132-135.423 6.090-16.036 13.22-28.867 20.618-37.106 3.055-3.405 9.002-9.112 14.5-9.112 5.496 0 11.447 5.709 14.498 9.112 7.403 8.241 14.529 21.069 20.618 37.106 13.628 35.877 21.134 83.972 21.134 135.423 0 51.448-7.506 99.544-21.134 135.424-6.088 16.036-13.22 28.866-20.618 37.106-3.052 3.402-9 9.11-14.498 9.11zM147.546 251.517c0-30.439 2.232-60.018 6.476-87.36-27.757 3.84-52.114 6.049-82.23 6.049-39.292 0-39.292 0-39.292 0l-32.5 55.48v51.662l32.496 55.48c0 0 0 0 39.293 0 30.116 0 54.473 2.211 82.23 6.049-4.24-27.342-6.473-56.921-6.473-87.361zM215.713 376.273l-74.999-14.361 47.954 188.405c2.482 9.746 12.155 14.671 21.496 10.93l69.466-27.804c9.342-3.736 13.083-14.041 8.318-22.901l-72.236-134.269zM506.733 321.521c-2.12 0-4.411-2.2-5.589-3.511-2.854-3.176-5.599-8.121-7.946-14.302-5.251-13.828-8.145-32.364-8.145-52.194s2.893-38.366 8.145-52.194c2.347-6.18 5.095-11.126 7.946-14.302 1.178-1.313 3.469-3.512 5.589-3.512 2.119 0 4.412 2.201 5.589 3.512 2.854 3.176 5.599 8.12 7.945 14.302 5.252 13.827 8.146 32.364 8.146 52.194 0 19.829-2.893 38.366-8.146 52.194-2.346 6.18-5.095 11.126-7.945 14.302-1.177 1.311-3.469 3.511-5.589 3.511z"></path>
</svg>
