<?xml version="1.0" encoding="utf-8"?>
<!-- Generated by IcoMoon.io -->
<!DOCTYPE svg PUBLIC "-//W3C//DTD SVG 1.1//EN" "http://www.w3.org/Graphics/SVG/1.1/DTD/svg11.dtd">
<svg version="1.1" xmlns="http://www.w3.org/2000/svg" xmlns:xlink="http://www.w3.org/1999/xlink" width="600" height="600" viewBox="0 0 600 600">
<path fill="#444444" d="M574.915 168.813c-52.036-7.481-107.45-12.9-165.279-15.949l96.614-96.614-37.5-37.5-131.577 131.576c-12.308-0.216-24.701-0.326-37.173-0.326v0l-150-150-37.5 37.5 113.787 113.787c-70.853 2.486-138.479 8.51-201.203 17.527-16.132 63.121-25.084 132.863-25.084 206.187s8.952 143.066 25.080 206.186c84.165 12.101 177.152 18.814 274.92 18.814s190.752-6.714 274.915-18.814c16.133-63.12 25.085-132.861 25.085-206.186s-8.952-143.066-25.085-206.187zM506.187 512.457c-63.123 8.066-132.861 12.543-206.187 12.543s-143.066-4.477-206.187-12.543c-12.098-42.080-18.813-88.574-18.813-137.457 0-48.885 6.714-95.379 18.813-137.459 63.121-8.066 132.861-12.541 206.187-12.541 73.322 0 143.064 4.475 206.183 12.541 12.103 42.080 18.817 88.574 18.817 137.459 0 48.884-6.714 95.378-18.813 137.457z"></path>
</svg>
